<mxfile host="app.diagrams.net" modified="2024-02-27T19:42:41.491Z" agent="Mozilla/5.0 (Windows NT 10.0; Win64; x64) AppleWebKit/537.36 (KHTML, like Gecko) Chrome/121.0.0.0 Safari/537.36" etag="F_QY4Rz9Gg0dFnR416H-" version="23.1.6" type="device">
  <diagram name="Page-1" id="rg5q_n2TvSpjX3Kdc9o8">
    <mxGraphModel dx="3070" dy="1937" grid="1" gridSize="10" guides="1" tooltips="1" connect="1" arrows="1" fold="1" page="1" pageScale="1" pageWidth="850" pageHeight="1100" math="0" shadow="0">
      <root>
        <mxCell id="0" />
        <mxCell id="1" parent="0" />
        <mxCell id="h3d2-yJqiKmQ40LZlvR1-4" style="rounded=0;orthogonalLoop=1;jettySize=auto;html=1;entryX=0;entryY=0.5;entryDx=0;entryDy=0;startArrow=none;startFill=0;endArrow=none;endFill=0;shape=link;" parent="1" source="h3d2-yJqiKmQ40LZlvR1-1" target="h3d2-yJqiKmQ40LZlvR1-2" edge="1">
          <mxGeometry relative="1" as="geometry" />
        </mxCell>
        <mxCell id="h3d2-yJqiKmQ40LZlvR1-13" style="rounded=0;orthogonalLoop=1;jettySize=auto;html=1;exitX=0;exitY=0;exitDx=0;exitDy=0;entryX=1;entryY=0.5;entryDx=0;entryDy=0;endArrow=none;endFill=0;" parent="1" source="h3d2-yJqiKmQ40LZlvR1-1" target="h3d2-yJqiKmQ40LZlvR1-5" edge="1">
          <mxGeometry relative="1" as="geometry" />
        </mxCell>
        <mxCell id="h3d2-yJqiKmQ40LZlvR1-16" style="edgeStyle=orthogonalEdgeStyle;rounded=0;orthogonalLoop=1;jettySize=auto;html=1;exitX=0.5;exitY=0;exitDx=0;exitDy=0;entryX=0.5;entryY=1;entryDx=0;entryDy=0;endArrow=none;endFill=0;" parent="1" source="h3d2-yJqiKmQ40LZlvR1-1" target="h3d2-yJqiKmQ40LZlvR1-11" edge="1">
          <mxGeometry relative="1" as="geometry" />
        </mxCell>
        <mxCell id="h3d2-yJqiKmQ40LZlvR1-19" style="edgeStyle=none;rounded=0;orthogonalLoop=1;jettySize=auto;html=1;exitX=0.5;exitY=1;exitDx=0;exitDy=0;endArrow=none;endFill=0;strokeColor=default;shape=link;" parent="1" source="h3d2-yJqiKmQ40LZlvR1-1" edge="1">
          <mxGeometry relative="1" as="geometry">
            <mxPoint x="200" y="210" as="targetPoint" />
          </mxGeometry>
        </mxCell>
        <mxCell id="h3d2-yJqiKmQ40LZlvR1-1" value="PHD_STUDENT" style="html=1;dashed=0;whiteSpace=wrap;" parent="1" vertex="1">
          <mxGeometry x="150" y="120" width="100" height="50" as="geometry" />
        </mxCell>
        <mxCell id="h3d2-yJqiKmQ40LZlvR1-133" style="edgeStyle=none;rounded=0;orthogonalLoop=1;jettySize=auto;html=1;exitX=1;exitY=0.5;exitDx=0;exitDy=0;entryX=0;entryY=0;entryDx=0;entryDy=0;endArrow=none;endFill=0;" parent="1" source="h3d2-yJqiKmQ40LZlvR1-2" target="h3d2-yJqiKmQ40LZlvR1-87" edge="1">
          <mxGeometry relative="1" as="geometry" />
        </mxCell>
        <mxCell id="h3d2-yJqiKmQ40LZlvR1-2" value="Committee" style="shape=rhombus;html=1;dashed=0;whiteSpace=wrap;perimeter=rhombusPerimeter;" parent="1" vertex="1">
          <mxGeometry x="470" y="230" width="90" height="50" as="geometry" />
        </mxCell>
        <mxCell id="h3d2-yJqiKmQ40LZlvR1-3" value="GTA" style="html=1;dashed=0;whiteSpace=wrap;" parent="1" vertex="1">
          <mxGeometry x="94" y="280" width="100" height="50" as="geometry" />
        </mxCell>
        <mxCell id="h3d2-yJqiKmQ40LZlvR1-5" value="Name" style="ellipse;whiteSpace=wrap;html=1;align=center;" parent="1" vertex="1">
          <mxGeometry x="-10" y="80" width="100" height="40" as="geometry" />
        </mxCell>
        <mxCell id="h3d2-yJqiKmQ40LZlvR1-12" style="edgeStyle=orthogonalEdgeStyle;rounded=0;orthogonalLoop=1;jettySize=auto;html=1;exitX=1;exitY=0.5;exitDx=0;exitDy=0;entryX=0;entryY=0.5;entryDx=0;entryDy=0;startArrow=none;startFill=0;endArrow=none;endFill=0;" parent="1" source="h3d2-yJqiKmQ40LZlvR1-6" target="h3d2-yJqiKmQ40LZlvR1-1" edge="1">
          <mxGeometry relative="1" as="geometry" />
        </mxCell>
        <mxCell id="h3d2-yJqiKmQ40LZlvR1-6" value="&lt;u&gt;StudentID&lt;/u&gt;" style="ellipse;whiteSpace=wrap;html=1;align=center;" parent="1" vertex="1">
          <mxGeometry x="-10" y="125" width="100" height="40" as="geometry" />
        </mxCell>
        <mxCell id="h3d2-yJqiKmQ40LZlvR1-7" value="Year" style="ellipse;whiteSpace=wrap;html=1;align=center;" parent="1" vertex="1">
          <mxGeometry x="250" y="10" width="100" height="40" as="geometry" />
        </mxCell>
        <mxCell id="h3d2-yJqiKmQ40LZlvR1-15" style="rounded=0;orthogonalLoop=1;jettySize=auto;html=1;exitX=0.5;exitY=1;exitDx=0;exitDy=0;entryX=0.5;entryY=0;entryDx=0;entryDy=0;endArrow=none;endFill=0;" parent="1" source="h3d2-yJqiKmQ40LZlvR1-8" target="h3d2-yJqiKmQ40LZlvR1-5" edge="1">
          <mxGeometry relative="1" as="geometry" />
        </mxCell>
        <mxCell id="h3d2-yJqiKmQ40LZlvR1-8" value="Lname" style="ellipse;whiteSpace=wrap;html=1;align=center;" parent="1" vertex="1">
          <mxGeometry x="40" y="20" width="100" height="40" as="geometry" />
        </mxCell>
        <mxCell id="h3d2-yJqiKmQ40LZlvR1-17" style="rounded=0;orthogonalLoop=1;jettySize=auto;html=1;exitX=0.5;exitY=1;exitDx=0;exitDy=0;endArrow=none;endFill=0;entryX=0.5;entryY=0;entryDx=0;entryDy=0;" parent="1" source="h3d2-yJqiKmQ40LZlvR1-9" target="h3d2-yJqiKmQ40LZlvR1-11" edge="1">
          <mxGeometry relative="1" as="geometry" />
        </mxCell>
        <mxCell id="h3d2-yJqiKmQ40LZlvR1-9" value="Semester" style="ellipse;whiteSpace=wrap;html=1;align=center;" parent="1" vertex="1">
          <mxGeometry x="150" width="100" height="40" as="geometry" />
        </mxCell>
        <mxCell id="h3d2-yJqiKmQ40LZlvR1-14" style="rounded=0;orthogonalLoop=1;jettySize=auto;html=1;exitX=0.5;exitY=1;exitDx=0;exitDy=0;entryX=0.5;entryY=0;entryDx=0;entryDy=0;endArrow=none;endFill=0;" parent="1" source="h3d2-yJqiKmQ40LZlvR1-10" target="h3d2-yJqiKmQ40LZlvR1-5" edge="1">
          <mxGeometry relative="1" as="geometry" />
        </mxCell>
        <mxCell id="h3d2-yJqiKmQ40LZlvR1-10" value="Fname" style="ellipse;whiteSpace=wrap;html=1;align=center;" parent="1" vertex="1">
          <mxGeometry x="-70" y="20" width="100" height="40" as="geometry" />
        </mxCell>
        <mxCell id="h3d2-yJqiKmQ40LZlvR1-11" value="StartSemester" style="ellipse;whiteSpace=wrap;html=1;align=center;" parent="1" vertex="1">
          <mxGeometry x="140" y="60" width="100" height="40" as="geometry" />
        </mxCell>
        <mxCell id="h3d2-yJqiKmQ40LZlvR1-18" style="edgeStyle=none;rounded=0;orthogonalLoop=1;jettySize=auto;html=1;exitX=0.5;exitY=1;exitDx=0;exitDy=0;entryX=0.5;entryY=0;entryDx=0;entryDy=0;endArrow=none;endFill=0;" parent="1" source="h3d2-yJqiKmQ40LZlvR1-7" target="h3d2-yJqiKmQ40LZlvR1-11" edge="1">
          <mxGeometry relative="1" as="geometry" />
        </mxCell>
        <mxCell id="h3d2-yJqiKmQ40LZlvR1-24" style="edgeStyle=none;rounded=0;orthogonalLoop=1;jettySize=auto;html=1;exitX=0;exitY=0.5;exitDx=0;exitDy=0;entryX=0.5;entryY=0;entryDx=0;entryDy=0;endArrow=none;endFill=0;" parent="1" source="h3d2-yJqiKmQ40LZlvR1-20" target="h3d2-yJqiKmQ40LZlvR1-21" edge="1">
          <mxGeometry relative="1" as="geometry" />
        </mxCell>
        <mxCell id="h3d2-yJqiKmQ40LZlvR1-25" style="edgeStyle=none;rounded=0;orthogonalLoop=1;jettySize=auto;html=1;exitX=0;exitY=1;exitDx=0;exitDy=0;entryX=0.5;entryY=0;entryDx=0;entryDy=0;endArrow=none;endFill=0;" parent="1" source="h3d2-yJqiKmQ40LZlvR1-20" target="h3d2-yJqiKmQ40LZlvR1-3" edge="1">
          <mxGeometry relative="1" as="geometry" />
        </mxCell>
        <mxCell id="h3d2-yJqiKmQ40LZlvR1-26" style="edgeStyle=none;rounded=0;orthogonalLoop=1;jettySize=auto;html=1;exitX=1;exitY=1;exitDx=0;exitDy=0;entryX=0.5;entryY=0;entryDx=0;entryDy=0;endArrow=none;endFill=0;" parent="1" source="h3d2-yJqiKmQ40LZlvR1-20" target="h3d2-yJqiKmQ40LZlvR1-22" edge="1">
          <mxGeometry relative="1" as="geometry" />
        </mxCell>
        <mxCell id="h3d2-yJqiKmQ40LZlvR1-27" style="edgeStyle=none;rounded=0;orthogonalLoop=1;jettySize=auto;html=1;exitX=1;exitY=0.5;exitDx=0;exitDy=0;entryX=0.5;entryY=0;entryDx=0;entryDy=0;endArrow=none;endFill=0;" parent="1" source="h3d2-yJqiKmQ40LZlvR1-20" target="h3d2-yJqiKmQ40LZlvR1-23" edge="1">
          <mxGeometry relative="1" as="geometry" />
        </mxCell>
        <mxCell id="h3d2-yJqiKmQ40LZlvR1-20" value="" style="ellipse;whiteSpace=wrap;html=1;aspect=fixed;" parent="1" vertex="1">
          <mxGeometry x="190" y="210" width="20" height="20" as="geometry" />
        </mxCell>
        <mxCell id="h3d2-yJqiKmQ40LZlvR1-105" style="edgeStyle=none;rounded=0;orthogonalLoop=1;jettySize=auto;html=1;exitX=0;exitY=0.5;exitDx=0;exitDy=0;endArrow=none;endFill=0;" parent="1" source="h3d2-yJqiKmQ40LZlvR1-21" target="h3d2-yJqiKmQ40LZlvR1-104" edge="1">
          <mxGeometry relative="1" as="geometry" />
        </mxCell>
        <mxCell id="h3d2-yJqiKmQ40LZlvR1-21" value="GRA" style="html=1;dashed=0;whiteSpace=wrap;" parent="1" vertex="1">
          <mxGeometry x="-21" y="280" width="100" height="50" as="geometry" />
        </mxCell>
        <mxCell id="h3d2-yJqiKmQ40LZlvR1-118" style="edgeStyle=none;rounded=0;orthogonalLoop=1;jettySize=auto;html=1;exitX=0.5;exitY=1;exitDx=0;exitDy=0;entryX=0;entryY=0.5;entryDx=0;entryDy=0;endArrow=none;endFill=0;" parent="1" source="h3d2-yJqiKmQ40LZlvR1-22" target="h3d2-yJqiKmQ40LZlvR1-117" edge="1">
          <mxGeometry relative="1" as="geometry" />
        </mxCell>
        <mxCell id="h3d2-yJqiKmQ40LZlvR1-22" value="SCHOLARSHIP_&lt;br&gt;SUPPORT" style="html=1;dashed=0;whiteSpace=wrap;" parent="1" vertex="1">
          <mxGeometry x="206" y="280" width="100" height="50" as="geometry" />
        </mxCell>
        <mxCell id="h3d2-yJqiKmQ40LZlvR1-23" value="SELF_&lt;br&gt;SUPPORT" style="html=1;dashed=0;whiteSpace=wrap;" parent="1" vertex="1">
          <mxGeometry x="320" y="280" width="100" height="50" as="geometry" />
        </mxCell>
        <mxCell id="h3d2-yJqiKmQ40LZlvR1-28" style="rounded=0;orthogonalLoop=1;jettySize=auto;html=1;entryX=0;entryY=0.5;entryDx=0;entryDy=0;startArrow=none;startFill=0;endArrow=none;endFill=0;shape=link;" parent="1" source="h3d2-yJqiKmQ40LZlvR1-32" edge="1">
          <mxGeometry relative="1" as="geometry">
            <mxPoint x="330" y="696" as="targetPoint" />
          </mxGeometry>
        </mxCell>
        <mxCell id="h3d2-yJqiKmQ40LZlvR1-29" style="rounded=0;orthogonalLoop=1;jettySize=auto;html=1;exitX=0;exitY=0;exitDx=0;exitDy=0;entryX=1;entryY=0.5;entryDx=0;entryDy=0;endArrow=none;endFill=0;" parent="1" source="h3d2-yJqiKmQ40LZlvR1-32" target="h3d2-yJqiKmQ40LZlvR1-34" edge="1">
          <mxGeometry relative="1" as="geometry" />
        </mxCell>
        <mxCell id="h3d2-yJqiKmQ40LZlvR1-56" style="edgeStyle=none;rounded=0;orthogonalLoop=1;jettySize=auto;html=1;exitX=0.25;exitY=1;exitDx=0;exitDy=0;entryX=0.5;entryY=0;entryDx=0;entryDy=0;endArrow=none;endFill=0;" parent="1" source="h3d2-yJqiKmQ40LZlvR1-32" target="h3d2-yJqiKmQ40LZlvR1-55" edge="1">
          <mxGeometry relative="1" as="geometry" />
        </mxCell>
        <mxCell id="h3d2-yJqiKmQ40LZlvR1-32" value="GRANT" style="html=1;dashed=0;whiteSpace=wrap;" parent="1" vertex="1">
          <mxGeometry x="113" y="665" width="100" height="50" as="geometry" />
        </mxCell>
        <mxCell id="h3d2-yJqiKmQ40LZlvR1-148" style="edgeStyle=none;rounded=0;orthogonalLoop=1;jettySize=auto;html=1;exitX=1;exitY=0.5;exitDx=0;exitDy=0;entryX=0;entryY=1;entryDx=0;entryDy=0;endArrow=none;endFill=0;" parent="1" source="h3d2-yJqiKmQ40LZlvR1-33" target="h3d2-yJqiKmQ40LZlvR1-87" edge="1">
          <mxGeometry relative="1" as="geometry" />
        </mxCell>
        <mxCell id="a-lybYkGv4idgZWlwZQJ-39" style="edgeStyle=none;rounded=0;orthogonalLoop=1;jettySize=auto;html=1;exitX=0.5;exitY=0;exitDx=0;exitDy=0;entryX=0;entryY=1;entryDx=0;entryDy=0;endArrow=none;endFill=0;" parent="1" source="h3d2-yJqiKmQ40LZlvR1-33" target="a-lybYkGv4idgZWlwZQJ-38" edge="1">
          <mxGeometry relative="1" as="geometry" />
        </mxCell>
        <mxCell id="h3d2-yJqiKmQ40LZlvR1-33" value="ASSOCIATE&lt;br&gt;WITH" style="shape=rhombus;html=1;dashed=0;whiteSpace=wrap;perimeter=rhombusPerimeter;" parent="1" vertex="1">
          <mxGeometry x="320" y="670" width="120" height="52" as="geometry" />
        </mxCell>
        <mxCell id="h3d2-yJqiKmQ40LZlvR1-34" value="GrantTitle" style="ellipse;whiteSpace=wrap;html=1;align=center;" parent="1" vertex="1">
          <mxGeometry x="-47" y="625" width="100" height="40" as="geometry" />
        </mxCell>
        <mxCell id="h3d2-yJqiKmQ40LZlvR1-35" style="edgeStyle=orthogonalEdgeStyle;rounded=0;orthogonalLoop=1;jettySize=auto;html=1;exitX=1;exitY=0.5;exitDx=0;exitDy=0;entryX=0;entryY=0.5;entryDx=0;entryDy=0;startArrow=none;startFill=0;endArrow=none;endFill=0;" parent="1" source="h3d2-yJqiKmQ40LZlvR1-36" target="h3d2-yJqiKmQ40LZlvR1-32" edge="1">
          <mxGeometry relative="1" as="geometry" />
        </mxCell>
        <mxCell id="h3d2-yJqiKmQ40LZlvR1-36" value="&lt;u&gt;AccountNo&lt;/u&gt;" style="ellipse;whiteSpace=wrap;html=1;align=center;" parent="1" vertex="1">
          <mxGeometry x="-47" y="670" width="100" height="40" as="geometry" />
        </mxCell>
        <mxCell id="h3d2-yJqiKmQ40LZlvR1-110" style="edgeStyle=none;rounded=0;orthogonalLoop=1;jettySize=auto;html=1;exitX=0.5;exitY=0;exitDx=0;exitDy=0;endArrow=none;endFill=0;" parent="1" source="h3d2-yJqiKmQ40LZlvR1-44" edge="1">
          <mxGeometry relative="1" as="geometry">
            <mxPoint x="183" y="717" as="targetPoint" />
          </mxGeometry>
        </mxCell>
        <mxCell id="h3d2-yJqiKmQ40LZlvR1-44" value="Type" style="ellipse;whiteSpace=wrap;html=1;align=center;" parent="1" vertex="1">
          <mxGeometry x="163" y="736" width="100" height="40" as="geometry" />
        </mxCell>
        <mxCell id="h3d2-yJqiKmQ40LZlvR1-46" style="rounded=0;orthogonalLoop=1;jettySize=auto;html=1;exitX=0.5;exitY=1;exitDx=0;exitDy=0;entryX=0.5;entryY=0;entryDx=0;entryDy=0;endArrow=none;endFill=0;" parent="1" source="h3d2-yJqiKmQ40LZlvR1-47" edge="1">
          <mxGeometry relative="1" as="geometry">
            <mxPoint x="213" y="665" as="targetPoint" />
          </mxGeometry>
        </mxCell>
        <mxCell id="h3d2-yJqiKmQ40LZlvR1-47" value="StartDate" style="ellipse;whiteSpace=wrap;html=1;align=center;" parent="1" vertex="1">
          <mxGeometry x="193" y="585" width="100" height="40" as="geometry" />
        </mxCell>
        <mxCell id="h3d2-yJqiKmQ40LZlvR1-48" value="EndDate" style="ellipse;whiteSpace=wrap;html=1;align=center;" parent="1" vertex="1">
          <mxGeometry x="259" y="617" width="100" height="40" as="geometry" />
        </mxCell>
        <mxCell id="h3d2-yJqiKmQ40LZlvR1-49" style="edgeStyle=none;rounded=0;orthogonalLoop=1;jettySize=auto;html=1;exitX=0.5;exitY=1;exitDx=0;exitDy=0;entryX=0.5;entryY=0;entryDx=0;entryDy=0;endArrow=none;endFill=0;" parent="1" source="h3d2-yJqiKmQ40LZlvR1-48" edge="1">
          <mxGeometry relative="1" as="geometry">
            <mxPoint x="213" y="675" as="targetPoint" />
          </mxGeometry>
        </mxCell>
        <mxCell id="h3d2-yJqiKmQ40LZlvR1-50" style="rounded=0;orthogonalLoop=1;jettySize=auto;html=1;exitX=0.5;exitY=1;exitDx=0;exitDy=0;endArrow=none;endFill=0;entryX=0.25;entryY=0;entryDx=0;entryDy=0;" parent="1" source="h3d2-yJqiKmQ40LZlvR1-51" target="h3d2-yJqiKmQ40LZlvR1-32" edge="1">
          <mxGeometry relative="1" as="geometry">
            <mxPoint x="53" y="637" as="targetPoint" />
          </mxGeometry>
        </mxCell>
        <mxCell id="h3d2-yJqiKmQ40LZlvR1-51" value="Source" style="ellipse;whiteSpace=wrap;html=1;align=center;" parent="1" vertex="1">
          <mxGeometry x="13" y="577" width="100" height="40" as="geometry" />
        </mxCell>
        <mxCell id="h3d2-yJqiKmQ40LZlvR1-52" style="rounded=0;orthogonalLoop=1;jettySize=auto;html=1;exitX=1;exitY=0.5;exitDx=0;exitDy=0;entryX=0;entryY=1;entryDx=0;entryDy=0;startArrow=none;startFill=0;endArrow=none;endFill=0;" parent="1" source="h3d2-yJqiKmQ40LZlvR1-53" target="h3d2-yJqiKmQ40LZlvR1-32" edge="1">
          <mxGeometry relative="1" as="geometry">
            <mxPoint x="123" y="730" as="targetPoint" />
          </mxGeometry>
        </mxCell>
        <mxCell id="h3d2-yJqiKmQ40LZlvR1-53" value="StartAmount" style="ellipse;whiteSpace=wrap;html=1;align=center;" parent="1" vertex="1">
          <mxGeometry x="-37" y="714" width="100" height="40" as="geometry" />
        </mxCell>
        <mxCell id="h3d2-yJqiKmQ40LZlvR1-55" value="CurrBalance" style="ellipse;whiteSpace=wrap;html=1;align=center;" parent="1" vertex="1">
          <mxGeometry x="59" y="736" width="100" height="40" as="geometry" />
        </mxCell>
        <mxCell id="h3d2-yJqiKmQ40LZlvR1-58" style="rounded=0;orthogonalLoop=1;jettySize=auto;html=1;exitX=0;exitY=0;exitDx=0;exitDy=0;entryX=1;entryY=0.5;entryDx=0;entryDy=0;endArrow=none;endFill=0;" parent="1" source="h3d2-yJqiKmQ40LZlvR1-61" target="h3d2-yJqiKmQ40LZlvR1-64" edge="1">
          <mxGeometry relative="1" as="geometry" />
        </mxCell>
        <mxCell id="h3d2-yJqiKmQ40LZlvR1-59" style="edgeStyle=orthogonalEdgeStyle;rounded=0;orthogonalLoop=1;jettySize=auto;html=1;exitX=0.5;exitY=0;exitDx=0;exitDy=0;entryX=0.5;entryY=1;entryDx=0;entryDy=0;endArrow=none;endFill=0;" parent="1" source="h3d2-yJqiKmQ40LZlvR1-61" target="h3d2-yJqiKmQ40LZlvR1-73" edge="1">
          <mxGeometry relative="1" as="geometry" />
        </mxCell>
        <mxCell id="h3d2-yJqiKmQ40LZlvR1-60" style="edgeStyle=none;rounded=0;orthogonalLoop=1;jettySize=auto;html=1;exitX=0.5;exitY=1;exitDx=0;exitDy=0;endArrow=none;endFill=0;strokeColor=default;shape=link;" parent="1" source="h3d2-yJqiKmQ40LZlvR1-61" edge="1">
          <mxGeometry relative="1" as="geometry">
            <mxPoint x="778" y="220" as="targetPoint" />
          </mxGeometry>
        </mxCell>
        <mxCell id="a-lybYkGv4idgZWlwZQJ-43" style="edgeStyle=orthogonalEdgeStyle;rounded=0;orthogonalLoop=1;jettySize=auto;html=1;exitX=1;exitY=0.5;exitDx=0;exitDy=0;entryX=0.5;entryY=0;entryDx=0;entryDy=0;shape=link;" parent="1" source="h3d2-yJqiKmQ40LZlvR1-61" target="h3d2-yJqiKmQ40LZlvR1-138" edge="1">
          <mxGeometry relative="1" as="geometry" />
        </mxCell>
        <mxCell id="h3d2-yJqiKmQ40LZlvR1-61" value="INSTRUCTOR" style="html=1;dashed=0;whiteSpace=wrap;" parent="1" vertex="1">
          <mxGeometry x="728" y="130" width="100" height="50" as="geometry" />
        </mxCell>
        <mxCell id="h3d2-yJqiKmQ40LZlvR1-63" value="ADJUNCT" style="html=1;dashed=0;whiteSpace=wrap;" parent="1" vertex="1">
          <mxGeometry x="672" y="280" width="100" height="50" as="geometry" />
        </mxCell>
        <mxCell id="h3d2-yJqiKmQ40LZlvR1-64" value="Name" style="ellipse;whiteSpace=wrap;html=1;align=center;" parent="1" vertex="1">
          <mxGeometry x="568" y="90" width="100" height="40" as="geometry" />
        </mxCell>
        <mxCell id="h3d2-yJqiKmQ40LZlvR1-65" style="edgeStyle=orthogonalEdgeStyle;rounded=0;orthogonalLoop=1;jettySize=auto;html=1;exitX=1;exitY=0.5;exitDx=0;exitDy=0;entryX=0;entryY=0.5;entryDx=0;entryDy=0;startArrow=none;startFill=0;endArrow=none;endFill=0;" parent="1" source="h3d2-yJqiKmQ40LZlvR1-66" target="h3d2-yJqiKmQ40LZlvR1-61" edge="1">
          <mxGeometry relative="1" as="geometry" />
        </mxCell>
        <mxCell id="h3d2-yJqiKmQ40LZlvR1-66" value="&lt;u&gt;InstructorID&lt;/u&gt;" style="ellipse;whiteSpace=wrap;html=1;align=center;" parent="1" vertex="1">
          <mxGeometry x="568" y="135" width="100" height="40" as="geometry" />
        </mxCell>
        <mxCell id="h3d2-yJqiKmQ40LZlvR1-67" value="Degree" style="ellipse;whiteSpace=wrap;html=1;align=center;" parent="1" vertex="1">
          <mxGeometry x="828" y="20" width="100" height="40" as="geometry" />
        </mxCell>
        <mxCell id="h3d2-yJqiKmQ40LZlvR1-68" style="rounded=0;orthogonalLoop=1;jettySize=auto;html=1;exitX=0.5;exitY=1;exitDx=0;exitDy=0;entryX=0.5;entryY=0;entryDx=0;entryDy=0;endArrow=none;endFill=0;" parent="1" source="h3d2-yJqiKmQ40LZlvR1-69" target="h3d2-yJqiKmQ40LZlvR1-64" edge="1">
          <mxGeometry relative="1" as="geometry" />
        </mxCell>
        <mxCell id="h3d2-yJqiKmQ40LZlvR1-69" value="Lname" style="ellipse;whiteSpace=wrap;html=1;align=center;" parent="1" vertex="1">
          <mxGeometry x="618" y="30" width="100" height="40" as="geometry" />
        </mxCell>
        <mxCell id="h3d2-yJqiKmQ40LZlvR1-71" style="rounded=0;orthogonalLoop=1;jettySize=auto;html=1;exitX=0.5;exitY=1;exitDx=0;exitDy=0;entryX=0.5;entryY=0;entryDx=0;entryDy=0;endArrow=none;endFill=0;" parent="1" source="h3d2-yJqiKmQ40LZlvR1-72" target="h3d2-yJqiKmQ40LZlvR1-64" edge="1">
          <mxGeometry relative="1" as="geometry" />
        </mxCell>
        <mxCell id="h3d2-yJqiKmQ40LZlvR1-72" value="Fname" style="ellipse;whiteSpace=wrap;html=1;align=center;" parent="1" vertex="1">
          <mxGeometry x="508" y="30" width="100" height="40" as="geometry" />
        </mxCell>
        <mxCell id="h3d2-yJqiKmQ40LZlvR1-73" value="StartDate" style="ellipse;whiteSpace=wrap;html=1;align=center;" parent="1" vertex="1">
          <mxGeometry x="718" y="70" width="100" height="40" as="geometry" />
        </mxCell>
        <mxCell id="h3d2-yJqiKmQ40LZlvR1-74" style="edgeStyle=none;rounded=0;orthogonalLoop=1;jettySize=auto;html=1;exitX=0.5;exitY=1;exitDx=0;exitDy=0;entryX=0.75;entryY=0;entryDx=0;entryDy=0;endArrow=none;endFill=0;" parent="1" source="h3d2-yJqiKmQ40LZlvR1-67" target="h3d2-yJqiKmQ40LZlvR1-61" edge="1">
          <mxGeometry relative="1" as="geometry" />
        </mxCell>
        <mxCell id="h3d2-yJqiKmQ40LZlvR1-76" style="edgeStyle=none;rounded=0;orthogonalLoop=1;jettySize=auto;html=1;exitX=0;exitY=1;exitDx=0;exitDy=0;entryX=0.5;entryY=0;entryDx=0;entryDy=0;endArrow=none;endFill=0;" parent="1" source="h3d2-yJqiKmQ40LZlvR1-79" target="h3d2-yJqiKmQ40LZlvR1-63" edge="1">
          <mxGeometry relative="1" as="geometry" />
        </mxCell>
        <mxCell id="h3d2-yJqiKmQ40LZlvR1-85" style="edgeStyle=none;rounded=0;orthogonalLoop=1;jettySize=auto;html=1;exitX=1;exitY=1;exitDx=0;exitDy=0;entryX=0.5;entryY=0;entryDx=0;entryDy=0;endArrow=none;endFill=0;" parent="1" source="h3d2-yJqiKmQ40LZlvR1-79" target="h3d2-yJqiKmQ40LZlvR1-80" edge="1">
          <mxGeometry relative="1" as="geometry" />
        </mxCell>
        <mxCell id="h3d2-yJqiKmQ40LZlvR1-79" value="" style="ellipse;whiteSpace=wrap;html=1;aspect=fixed;" parent="1" vertex="1">
          <mxGeometry x="768" y="220" width="20" height="20" as="geometry" />
        </mxCell>
        <mxCell id="h3d2-yJqiKmQ40LZlvR1-80" value="FULL_TIME" style="html=1;dashed=0;whiteSpace=wrap;" parent="1" vertex="1">
          <mxGeometry x="780" y="280" width="100" height="50" as="geometry" />
        </mxCell>
        <mxCell id="h3d2-yJqiKmQ40LZlvR1-83" value="Rank" style="ellipse;whiteSpace=wrap;html=1;align=center;" parent="1" vertex="1">
          <mxGeometry x="860" y="72" width="100" height="40" as="geometry" />
        </mxCell>
        <mxCell id="h3d2-yJqiKmQ40LZlvR1-84" style="edgeStyle=none;rounded=0;orthogonalLoop=1;jettySize=auto;html=1;exitX=0.5;exitY=1;exitDx=0;exitDy=0;entryX=0.75;entryY=0;entryDx=0;entryDy=0;endArrow=none;endFill=0;" parent="1" source="h3d2-yJqiKmQ40LZlvR1-83" edge="1">
          <mxGeometry relative="1" as="geometry">
            <mxPoint x="828" y="130" as="targetPoint" />
          </mxGeometry>
        </mxCell>
        <mxCell id="h3d2-yJqiKmQ40LZlvR1-86" style="edgeStyle=none;rounded=0;orthogonalLoop=1;jettySize=auto;html=1;exitX=0.5;exitY=1;exitDx=0;exitDy=0;endArrow=none;endFill=0;strokeColor=default;shape=link;" parent="1" edge="1">
          <mxGeometry relative="1" as="geometry">
            <mxPoint x="829" y="370" as="targetPoint" />
            <mxPoint x="829" y="330" as="sourcePoint" />
          </mxGeometry>
        </mxCell>
        <mxCell id="h3d2-yJqiKmQ40LZlvR1-147" style="edgeStyle=none;rounded=0;orthogonalLoop=1;jettySize=auto;html=1;exitX=0;exitY=0.5;exitDx=0;exitDy=0;entryX=1;entryY=0.5;entryDx=0;entryDy=0;endArrow=none;endFill=0;" parent="1" source="h3d2-yJqiKmQ40LZlvR1-87" target="h3d2-yJqiKmQ40LZlvR1-146" edge="1">
          <mxGeometry relative="1" as="geometry" />
        </mxCell>
        <mxCell id="h3d2-yJqiKmQ40LZlvR1-87" value="TT" style="html=1;dashed=0;whiteSpace=wrap;" parent="1" vertex="1">
          <mxGeometry x="723" y="430" width="100" height="50" as="geometry" />
        </mxCell>
        <mxCell id="h3d2-yJqiKmQ40LZlvR1-88" style="edgeStyle=none;rounded=0;orthogonalLoop=1;jettySize=auto;html=1;exitX=0;exitY=1;exitDx=0;exitDy=0;entryX=0.5;entryY=0;entryDx=0;entryDy=0;endArrow=none;endFill=0;" parent="1" source="h3d2-yJqiKmQ40LZlvR1-90" target="h3d2-yJqiKmQ40LZlvR1-87" edge="1">
          <mxGeometry relative="1" as="geometry" />
        </mxCell>
        <mxCell id="h3d2-yJqiKmQ40LZlvR1-89" style="edgeStyle=none;rounded=0;orthogonalLoop=1;jettySize=auto;html=1;exitX=1;exitY=1;exitDx=0;exitDy=0;entryX=0.5;entryY=0;entryDx=0;entryDy=0;endArrow=none;endFill=0;" parent="1" source="h3d2-yJqiKmQ40LZlvR1-90" target="h3d2-yJqiKmQ40LZlvR1-91" edge="1">
          <mxGeometry relative="1" as="geometry" />
        </mxCell>
        <mxCell id="h3d2-yJqiKmQ40LZlvR1-90" value="" style="ellipse;whiteSpace=wrap;html=1;aspect=fixed;" parent="1" vertex="1">
          <mxGeometry x="819" y="370" width="20" height="20" as="geometry" />
        </mxCell>
        <mxCell id="a-lybYkGv4idgZWlwZQJ-42" style="edgeStyle=orthogonalEdgeStyle;rounded=0;orthogonalLoop=1;jettySize=auto;html=1;exitX=1;exitY=0.5;exitDx=0;exitDy=0;entryX=0;entryY=0.5;entryDx=0;entryDy=0;endArrow=none;endFill=0;" parent="1" source="h3d2-yJqiKmQ40LZlvR1-91" target="a-lybYkGv4idgZWlwZQJ-41" edge="1">
          <mxGeometry relative="1" as="geometry" />
        </mxCell>
        <mxCell id="h3d2-yJqiKmQ40LZlvR1-91" value="NTT" style="html=1;dashed=0;whiteSpace=wrap;" parent="1" vertex="1">
          <mxGeometry x="831" y="430" width="100" height="50" as="geometry" />
        </mxCell>
        <mxCell id="h3d2-yJqiKmQ40LZlvR1-142" style="edgeStyle=none;rounded=0;orthogonalLoop=1;jettySize=auto;html=1;exitX=0.5;exitY=1;exitDx=0;exitDy=0;entryX=0.5;entryY=0;entryDx=0;entryDy=0;endArrow=none;endFill=0;" parent="1" source="h3d2-yJqiKmQ40LZlvR1-92" edge="1">
          <mxGeometry relative="1" as="geometry">
            <mxPoint x="843" y="649" as="targetPoint" />
          </mxGeometry>
        </mxCell>
        <mxCell id="h3d2-yJqiKmQ40LZlvR1-92" value="COURSE" style="html=1;dashed=0;whiteSpace=wrap;" parent="1" vertex="1">
          <mxGeometry x="800" y="577" width="100" height="50" as="geometry" />
        </mxCell>
        <mxCell id="h3d2-yJqiKmQ40LZlvR1-95" style="edgeStyle=none;rounded=0;orthogonalLoop=1;jettySize=auto;html=1;exitX=0;exitY=0.5;exitDx=0;exitDy=0;endArrow=none;endFill=0;" parent="1" source="h3d2-yJqiKmQ40LZlvR1-94" edge="1">
          <mxGeometry relative="1" as="geometry">
            <mxPoint x="894" y="760" as="targetPoint" />
          </mxGeometry>
        </mxCell>
        <mxCell id="h3d2-yJqiKmQ40LZlvR1-94" value="SectionID" style="ellipse;whiteSpace=wrap;html=1;align=center;" parent="1" vertex="1">
          <mxGeometry x="928" y="740" width="100" height="40" as="geometry" />
        </mxCell>
        <mxCell id="h3d2-yJqiKmQ40LZlvR1-102" style="edgeStyle=none;rounded=0;orthogonalLoop=1;jettySize=auto;html=1;exitX=0.5;exitY=1;exitDx=0;exitDy=0;endArrow=none;endFill=0;" parent="1" source="h3d2-yJqiKmQ40LZlvR1-96" target="h3d2-yJqiKmQ40LZlvR1-99" edge="1">
          <mxGeometry relative="1" as="geometry" />
        </mxCell>
        <mxCell id="h3d2-yJqiKmQ40LZlvR1-103" style="edgeStyle=none;rounded=0;orthogonalLoop=1;jettySize=auto;html=1;exitX=0;exitY=1;exitDx=0;exitDy=0;entryX=0.5;entryY=0;entryDx=0;entryDy=0;endArrow=none;endFill=0;" parent="1" source="h3d2-yJqiKmQ40LZlvR1-96" target="h3d2-yJqiKmQ40LZlvR1-100" edge="1">
          <mxGeometry relative="1" as="geometry" />
        </mxCell>
        <mxCell id="h3d2-yJqiKmQ40LZlvR1-96" value="SCHOLARSHIP" style="html=1;dashed=0;whiteSpace=wrap;" parent="1" vertex="1">
          <mxGeometry x="480" y="680" width="100" height="50" as="geometry" />
        </mxCell>
        <mxCell id="h3d2-yJqiKmQ40LZlvR1-97" style="edgeStyle=none;rounded=0;orthogonalLoop=1;jettySize=auto;html=1;exitX=0;exitY=0;exitDx=0;exitDy=0;entryX=1;entryY=1;entryDx=0;entryDy=0;endArrow=none;endFill=0;" parent="1" source="h3d2-yJqiKmQ40LZlvR1-98" target="h3d2-yJqiKmQ40LZlvR1-96" edge="1">
          <mxGeometry relative="1" as="geometry" />
        </mxCell>
        <mxCell id="h3d2-yJqiKmQ40LZlvR1-98" value="&lt;u&gt;ScholarshipID&lt;/u&gt;" style="ellipse;whiteSpace=wrap;html=1;align=center;" parent="1" vertex="1">
          <mxGeometry x="585" y="760" width="100" height="40" as="geometry" />
        </mxCell>
        <mxCell id="h3d2-yJqiKmQ40LZlvR1-99" value="FundingSource" style="ellipse;whiteSpace=wrap;html=1;align=center;" parent="1" vertex="1">
          <mxGeometry x="481" y="760" width="100" height="40" as="geometry" />
        </mxCell>
        <mxCell id="h3d2-yJqiKmQ40LZlvR1-100" value="ScholarshipType" style="ellipse;whiteSpace=wrap;html=1;align=center;" parent="1" vertex="1">
          <mxGeometry x="375" y="760" width="100" height="40" as="geometry" />
        </mxCell>
        <mxCell id="h3d2-yJqiKmQ40LZlvR1-104" value="ResearchArea" style="ellipse;whiteSpace=wrap;html=1;align=center;" parent="1" vertex="1">
          <mxGeometry x="-159" y="285" width="100" height="40" as="geometry" />
        </mxCell>
        <mxCell id="h3d2-yJqiKmQ40LZlvR1-107" style="edgeStyle=none;rounded=0;orthogonalLoop=1;jettySize=auto;html=1;exitX=0.5;exitY=0;exitDx=0;exitDy=0;entryX=0.5;entryY=1;entryDx=0;entryDy=0;endArrow=none;endFill=0;shape=link;" parent="1" source="h3d2-yJqiKmQ40LZlvR1-106" target="h3d2-yJqiKmQ40LZlvR1-21" edge="1">
          <mxGeometry relative="1" as="geometry">
            <mxPoint x="-36" y="335" as="sourcePoint" />
          </mxGeometry>
        </mxCell>
        <mxCell id="h3d2-yJqiKmQ40LZlvR1-106" value="FUNDED_BY" style="shape=rhombus;html=1;dashed=0;whiteSpace=wrap;perimeter=rhombusPerimeter;" parent="1" vertex="1">
          <mxGeometry x="10" y="370" width="110" height="50" as="geometry" />
        </mxCell>
        <mxCell id="h3d2-yJqiKmQ40LZlvR1-108" style="edgeStyle=none;rounded=0;orthogonalLoop=1;jettySize=auto;html=1;exitX=0.5;exitY=1;exitDx=0;exitDy=0;entryX=0.4;entryY=0.044;entryDx=0;entryDy=0;entryPerimeter=0;endArrow=none;endFill=0;" parent="1" source="h3d2-yJqiKmQ40LZlvR1-106" target="h3d2-yJqiKmQ40LZlvR1-32" edge="1">
          <mxGeometry relative="1" as="geometry" />
        </mxCell>
        <mxCell id="h3d2-yJqiKmQ40LZlvR1-112" style="edgeStyle=none;rounded=0;orthogonalLoop=1;jettySize=auto;html=1;exitX=0;exitY=0.5;exitDx=0;exitDy=0;endArrow=none;endFill=0;" parent="1" target="h3d2-yJqiKmQ40LZlvR1-113" edge="1">
          <mxGeometry relative="1" as="geometry">
            <mxPoint x="10" y="395" as="sourcePoint" />
          </mxGeometry>
        </mxCell>
        <mxCell id="h3d2-yJqiKmQ40LZlvR1-113" value="MonthlyPay" style="ellipse;whiteSpace=wrap;html=1;align=center;" parent="1" vertex="1">
          <mxGeometry x="-128" y="375" width="100" height="40" as="geometry" />
        </mxCell>
        <mxCell id="h3d2-yJqiKmQ40LZlvR1-115" style="edgeStyle=none;rounded=0;orthogonalLoop=1;jettySize=auto;html=1;exitX=0.5;exitY=0;exitDx=0;exitDy=0;entryX=0.5;entryY=1;entryDx=0;entryDy=0;endArrow=none;endFill=0;" parent="1" source="h3d2-yJqiKmQ40LZlvR1-114" target="h3d2-yJqiKmQ40LZlvR1-3" edge="1">
          <mxGeometry relative="1" as="geometry" />
        </mxCell>
        <mxCell id="h3d2-yJqiKmQ40LZlvR1-116" style="edgeStyle=none;rounded=0;orthogonalLoop=1;jettySize=auto;html=1;exitX=1;exitY=0.5;exitDx=0;exitDy=0;entryX=0;entryY=0.5;entryDx=0;entryDy=0;endArrow=none;endFill=0;shape=link;" parent="1" source="h3d2-yJqiKmQ40LZlvR1-114" edge="1">
          <mxGeometry relative="1" as="geometry">
            <mxPoint x="794" y="755" as="targetPoint" />
          </mxGeometry>
        </mxCell>
        <mxCell id="h3d2-yJqiKmQ40LZlvR1-114" value="SOURCE_OF_FUNDING" style="shape=rhombus;html=1;dashed=0;whiteSpace=wrap;perimeter=rhombusPerimeter;" parent="1" vertex="1">
          <mxGeometry x="150" y="520" width="174" height="50" as="geometry" />
        </mxCell>
        <mxCell id="h3d2-yJqiKmQ40LZlvR1-119" style="edgeStyle=none;rounded=0;orthogonalLoop=1;jettySize=auto;html=1;exitX=1;exitY=0.5;exitDx=0;exitDy=0;entryX=0.5;entryY=0;entryDx=0;entryDy=0;endArrow=none;endFill=0;" parent="1" source="h3d2-yJqiKmQ40LZlvR1-117" target="h3d2-yJqiKmQ40LZlvR1-96" edge="1">
          <mxGeometry relative="1" as="geometry" />
        </mxCell>
        <mxCell id="h3d2-yJqiKmQ40LZlvR1-150" style="edgeStyle=none;rounded=0;orthogonalLoop=1;jettySize=auto;html=1;exitX=0.5;exitY=1;exitDx=0;exitDy=0;entryX=0.5;entryY=0;entryDx=0;entryDy=0;endArrow=none;endFill=0;" parent="1" source="h3d2-yJqiKmQ40LZlvR1-117" target="h3d2-yJqiKmQ40LZlvR1-149" edge="1">
          <mxGeometry relative="1" as="geometry" />
        </mxCell>
        <mxCell id="h3d2-yJqiKmQ40LZlvR1-117" value="FUNDING" style="shape=rhombus;html=1;dashed=0;whiteSpace=wrap;perimeter=rhombusPerimeter;" parent="1" vertex="1">
          <mxGeometry x="481" y="330" width="110" height="50" as="geometry" />
        </mxCell>
        <mxCell id="h3d2-yJqiKmQ40LZlvR1-121" style="edgeStyle=none;rounded=0;orthogonalLoop=1;jettySize=auto;html=1;exitX=0;exitY=0.5;exitDx=0;exitDy=0;entryX=0.75;entryY=1;entryDx=0;entryDy=0;endArrow=none;endFill=0;" parent="1" source="h3d2-yJqiKmQ40LZlvR1-120" target="h3d2-yJqiKmQ40LZlvR1-3" edge="1">
          <mxGeometry relative="1" as="geometry" />
        </mxCell>
        <mxCell id="h3d2-yJqiKmQ40LZlvR1-122" style="edgeStyle=none;rounded=0;orthogonalLoop=1;jettySize=auto;html=1;exitX=1;exitY=0.5;exitDx=0;exitDy=0;entryX=0.25;entryY=0;entryDx=0;entryDy=0;endArrow=none;endFill=0;shape=link;" parent="1" source="h3d2-yJqiKmQ40LZlvR1-120" target="h3d2-yJqiKmQ40LZlvR1-162" edge="1">
          <mxGeometry relative="1" as="geometry">
            <mxPoint x="794" y="730" as="targetPoint" />
          </mxGeometry>
        </mxCell>
        <mxCell id="h3d2-yJqiKmQ40LZlvR1-120" value="ASSIGNED_TO" style="shape=rhombus;html=1;dashed=0;whiteSpace=wrap;perimeter=rhombusPerimeter;" parent="1" vertex="1">
          <mxGeometry x="350" y="397" width="110" height="50" as="geometry" />
        </mxCell>
        <mxCell id="h3d2-yJqiKmQ40LZlvR1-124" style="edgeStyle=none;rounded=0;orthogonalLoop=1;jettySize=auto;html=1;exitX=0;exitY=0.5;exitDx=0;exitDy=0;entryX=1;entryY=0;entryDx=0;entryDy=0;endArrow=none;endFill=0;shape=link;" parent="1" source="h3d2-yJqiKmQ40LZlvR1-123" target="h3d2-yJqiKmQ40LZlvR1-1" edge="1">
          <mxGeometry relative="1" as="geometry" />
        </mxCell>
        <mxCell id="h3d2-yJqiKmQ40LZlvR1-126" style="edgeStyle=none;rounded=0;orthogonalLoop=1;jettySize=auto;html=1;exitX=1;exitY=0.5;exitDx=0;exitDy=0;entryX=0;entryY=1;entryDx=0;entryDy=0;endArrow=none;endFill=0;shape=link;" parent="1" source="h3d2-yJqiKmQ40LZlvR1-123" target="h3d2-yJqiKmQ40LZlvR1-125" edge="1">
          <mxGeometry relative="1" as="geometry" />
        </mxCell>
        <mxCell id="h3d2-yJqiKmQ40LZlvR1-132" style="edgeStyle=none;rounded=0;orthogonalLoop=1;jettySize=auto;html=1;exitX=0.5;exitY=1;exitDx=0;exitDy=0;entryX=0.5;entryY=0;entryDx=0;entryDy=0;endArrow=none;endFill=0;" parent="1" source="h3d2-yJqiKmQ40LZlvR1-123" target="h3d2-yJqiKmQ40LZlvR1-131" edge="1">
          <mxGeometry relative="1" as="geometry" />
        </mxCell>
        <mxCell id="h3d2-yJqiKmQ40LZlvR1-123" value="PASS" style="shape=rhombus;html=1;dashed=0;whiteSpace=wrap;perimeter=rhombusPerimeter;" parent="1" vertex="1">
          <mxGeometry x="315" y="50" width="110" height="50" as="geometry" />
        </mxCell>
        <mxCell id="h3d2-yJqiKmQ40LZlvR1-125" value="MILESTONE" style="html=1;dashed=0;whiteSpace=wrap;" parent="1" vertex="1">
          <mxGeometry x="440" y="-40" width="100" height="50" as="geometry" />
        </mxCell>
        <mxCell id="h3d2-yJqiKmQ40LZlvR1-130" style="edgeStyle=none;rounded=0;orthogonalLoop=1;jettySize=auto;html=1;exitX=0;exitY=0.5;exitDx=0;exitDy=0;entryX=1;entryY=0.75;entryDx=0;entryDy=0;endArrow=none;endFill=0;" parent="1" source="h3d2-yJqiKmQ40LZlvR1-127" target="h3d2-yJqiKmQ40LZlvR1-125" edge="1">
          <mxGeometry relative="1" as="geometry" />
        </mxCell>
        <mxCell id="h3d2-yJqiKmQ40LZlvR1-127" value="&lt;u&gt;MID&lt;/u&gt;" style="ellipse;whiteSpace=wrap;html=1;align=center;" parent="1" vertex="1">
          <mxGeometry x="573" y="-21" width="100" height="40" as="geometry" />
        </mxCell>
        <mxCell id="h3d2-yJqiKmQ40LZlvR1-129" style="edgeStyle=none;rounded=0;orthogonalLoop=1;jettySize=auto;html=1;exitX=0;exitY=0.5;exitDx=0;exitDy=0;entryX=1;entryY=0;entryDx=0;entryDy=0;endArrow=none;endFill=0;" parent="1" source="h3d2-yJqiKmQ40LZlvR1-128" target="h3d2-yJqiKmQ40LZlvR1-125" edge="1">
          <mxGeometry relative="1" as="geometry" />
        </mxCell>
        <mxCell id="h3d2-yJqiKmQ40LZlvR1-128" value="MName" style="ellipse;whiteSpace=wrap;html=1;align=center;" parent="1" vertex="1">
          <mxGeometry x="564" y="-76" width="100" height="40" as="geometry" />
        </mxCell>
        <mxCell id="h3d2-yJqiKmQ40LZlvR1-131" value="PassDate" style="ellipse;whiteSpace=wrap;html=1;align=center;" parent="1" vertex="1">
          <mxGeometry x="320" y="125" width="100" height="40" as="geometry" />
        </mxCell>
        <mxCell id="h3d2-yJqiKmQ40LZlvR1-135" style="edgeStyle=none;rounded=0;orthogonalLoop=1;jettySize=auto;html=1;exitX=0.5;exitY=1;exitDx=0;exitDy=0;endArrow=none;endFill=0;" parent="1" source="h3d2-yJqiKmQ40LZlvR1-134" target="h3d2-yJqiKmQ40LZlvR1-2" edge="1">
          <mxGeometry relative="1" as="geometry" />
        </mxCell>
        <mxCell id="h3d2-yJqiKmQ40LZlvR1-134" value="Supervisor" style="ellipse;whiteSpace=wrap;html=1;align=center;" parent="1" vertex="1">
          <mxGeometry x="466" y="167" width="100" height="40" as="geometry" />
        </mxCell>
        <mxCell id="h3d2-yJqiKmQ40LZlvR1-140" style="edgeStyle=orthogonalEdgeStyle;rounded=0;orthogonalLoop=1;jettySize=auto;html=1;exitX=0.5;exitY=1;exitDx=0;exitDy=0;entryX=0.5;entryY=0;entryDx=0;entryDy=0;endArrow=none;endFill=0;shape=link;" parent="1" source="h3d2-yJqiKmQ40LZlvR1-138" target="h3d2-yJqiKmQ40LZlvR1-92" edge="1">
          <mxGeometry relative="1" as="geometry">
            <Array as="points">
              <mxPoint x="1105" y="510" />
              <mxPoint x="850" y="510" />
            </Array>
          </mxGeometry>
        </mxCell>
        <mxCell id="h3d2-yJqiKmQ40LZlvR1-138" value="TAUGHT" style="shape=rhombus;html=1;dashed=0;whiteSpace=wrap;perimeter=rhombusPerimeter;" parent="1" vertex="1">
          <mxGeometry x="1050" y="280" width="110" height="50" as="geometry" />
        </mxCell>
        <mxCell id="h3d2-yJqiKmQ40LZlvR1-143" style="edgeStyle=none;rounded=0;orthogonalLoop=1;jettySize=auto;html=1;exitX=0.5;exitY=1;exitDx=0;exitDy=0;entryX=0.5;entryY=0;entryDx=0;entryDy=0;endArrow=none;endFill=0;shape=link;" parent="1" target="h3d2-yJqiKmQ40LZlvR1-162" edge="1">
          <mxGeometry relative="1" as="geometry">
            <mxPoint x="843" y="699" as="sourcePoint" />
            <mxPoint x="844" y="730" as="targetPoint" />
          </mxGeometry>
        </mxCell>
        <mxCell id="h3d2-yJqiKmQ40LZlvR1-146" value="NoOfPhdSupervised" style="ellipse;whiteSpace=wrap;html=1;align=center;" parent="1" vertex="1">
          <mxGeometry x="576" y="435" width="132" height="40" as="geometry" />
        </mxCell>
        <mxCell id="h3d2-yJqiKmQ40LZlvR1-149" value="Stipend" style="ellipse;whiteSpace=wrap;html=1;align=center;" parent="1" vertex="1">
          <mxGeometry x="473" y="394" width="100" height="40" as="geometry" />
        </mxCell>
        <mxCell id="h3d2-yJqiKmQ40LZlvR1-152" style="rounded=0;orthogonalLoop=1;jettySize=auto;html=1;exitX=0;exitY=0.5;exitDx=0;exitDy=0;entryX=1;entryY=0.5;entryDx=0;entryDy=0;endArrow=none;endFill=0;" parent="1" source="h3d2-yJqiKmQ40LZlvR1-151" target="h3d2-yJqiKmQ40LZlvR1-23" edge="1">
          <mxGeometry relative="1" as="geometry" />
        </mxCell>
        <mxCell id="h3d2-yJqiKmQ40LZlvR1-151" value="InstallmentPlan" style="ellipse;whiteSpace=wrap;html=1;align=center;" parent="1" vertex="1">
          <mxGeometry x="440" y="285" width="100" height="40" as="geometry" />
        </mxCell>
        <mxCell id="h3d2-yJqiKmQ40LZlvR1-158" style="edgeStyle=none;rounded=0;orthogonalLoop=1;jettySize=auto;html=1;exitX=0;exitY=0;exitDx=0;exitDy=0;entryX=0.75;entryY=1;entryDx=0;entryDy=0;endArrow=none;endFill=0;" parent="1" source="h3d2-yJqiKmQ40LZlvR1-153" target="h3d2-yJqiKmQ40LZlvR1-3" edge="1">
          <mxGeometry relative="1" as="geometry" />
        </mxCell>
        <mxCell id="h3d2-yJqiKmQ40LZlvR1-159" style="edgeStyle=none;rounded=0;orthogonalLoop=1;jettySize=auto;html=1;exitX=1;exitY=1;exitDx=0;exitDy=0;entryX=0.5;entryY=0;entryDx=0;entryDy=0;endArrow=none;endFill=0;" parent="1" source="h3d2-yJqiKmQ40LZlvR1-153" target="h3d2-yJqiKmQ40LZlvR1-154" edge="1">
          <mxGeometry relative="1" as="geometry" />
        </mxCell>
        <mxCell id="h3d2-yJqiKmQ40LZlvR1-161" style="edgeStyle=none;rounded=0;orthogonalLoop=1;jettySize=auto;html=1;exitX=1;exitY=0.5;exitDx=0;exitDy=0;entryX=0.5;entryY=0;entryDx=0;entryDy=0;endArrow=none;endFill=0;" parent="1" source="h3d2-yJqiKmQ40LZlvR1-153" target="h3d2-yJqiKmQ40LZlvR1-155" edge="1">
          <mxGeometry relative="1" as="geometry" />
        </mxCell>
        <mxCell id="h3d2-yJqiKmQ40LZlvR1-153" value="Department" style="ellipse;whiteSpace=wrap;html=1;align=center;" parent="1" vertex="1">
          <mxGeometry x="194" y="385" width="100" height="40" as="geometry" />
        </mxCell>
        <mxCell id="h3d2-yJqiKmQ40LZlvR1-154" value="DepartmentName" style="ellipse;whiteSpace=wrap;html=1;align=center;" parent="1" vertex="1">
          <mxGeometry x="228" y="468" width="100" height="40" as="geometry" />
        </mxCell>
        <mxCell id="h3d2-yJqiKmQ40LZlvR1-155" value="&lt;u&gt;DepartmentID&lt;/u&gt;" style="ellipse;whiteSpace=wrap;html=1;align=center;" parent="1" vertex="1">
          <mxGeometry x="293" y="434" width="100" height="40" as="geometry" />
        </mxCell>
        <mxCell id="h3d2-yJqiKmQ40LZlvR1-162" value="SECTION" style="shape=ext;margin=3;double=1;whiteSpace=wrap;html=1;align=center;" parent="1" vertex="1">
          <mxGeometry x="793" y="740" width="100" height="40" as="geometry" />
        </mxCell>
        <mxCell id="h3d2-yJqiKmQ40LZlvR1-165" value="" style="endArrow=none;dashed=1;html=1;rounded=0;" parent="1" edge="1">
          <mxGeometry width="50" height="50" relative="1" as="geometry">
            <mxPoint x="945" y="768" as="sourcePoint" />
            <mxPoint x="1015" y="768" as="targetPoint" />
          </mxGeometry>
        </mxCell>
        <mxCell id="h3d2-yJqiKmQ40LZlvR1-166" value="OFFERED" style="shape=rhombus;double=1;perimeter=rhombusPerimeter;whiteSpace=wrap;html=1;align=center;" parent="1" vertex="1">
          <mxGeometry x="783" y="650" width="120" height="60" as="geometry" />
        </mxCell>
        <mxCell id="h3d2-yJqiKmQ40LZlvR1-167" value="" style="shape=requiredInterface;html=1;verticalLabelPosition=bottom;sketch=0;rotation=-210;" parent="1" vertex="1">
          <mxGeometry x="117" y="234" width="19" height="20" as="geometry" />
        </mxCell>
        <mxCell id="h3d2-yJqiKmQ40LZlvR1-169" value="" style="shape=requiredInterface;html=1;verticalLabelPosition=bottom;sketch=0;rotation=120;" parent="1" vertex="1">
          <mxGeometry x="159" y="244" width="19" height="20" as="geometry" />
        </mxCell>
        <mxCell id="h3d2-yJqiKmQ40LZlvR1-170" value="" style="shape=requiredInterface;html=1;verticalLabelPosition=bottom;sketch=0;rotation=45;" parent="1" vertex="1">
          <mxGeometry x="224" y="244" width="19" height="20" as="geometry" />
        </mxCell>
        <mxCell id="h3d2-yJqiKmQ40LZlvR1-177" value="" style="shape=requiredInterface;html=1;verticalLabelPosition=bottom;sketch=0;rotation=120;direction=north;" parent="1" vertex="1">
          <mxGeometry x="280.32" y="239.93" width="20" height="19.91" as="geometry" />
        </mxCell>
        <mxCell id="h3d2-yJqiKmQ40LZlvR1-179" value="" style="shape=requiredInterface;html=1;verticalLabelPosition=bottom;sketch=0;rotation=-225;direction=north;" parent="1" vertex="1">
          <mxGeometry x="791" y="242.09" width="20" height="19.91" as="geometry" />
        </mxCell>
        <mxCell id="h3d2-yJqiKmQ40LZlvR1-182" value="" style="shape=requiredInterface;html=1;verticalLabelPosition=bottom;sketch=0;rotation=-145;direction=north;" parent="1" vertex="1">
          <mxGeometry x="746.9000000000001" y="241.1" width="20" height="19.66" as="geometry" />
        </mxCell>
        <mxCell id="h3d2-yJqiKmQ40LZlvR1-186" value="" style="shape=requiredInterface;html=1;verticalLabelPosition=bottom;sketch=0;rotation=-145;direction=north;" parent="1" vertex="1">
          <mxGeometry x="791.9000000000001" y="394.1" width="20" height="19.66" as="geometry" />
        </mxCell>
        <mxCell id="h3d2-yJqiKmQ40LZlvR1-187" value="" style="shape=requiredInterface;html=1;verticalLabelPosition=bottom;sketch=0;rotation=-225;direction=north;" parent="1" vertex="1">
          <mxGeometry x="843" y="392.09000000000003" width="20" height="19.91" as="geometry" />
        </mxCell>
        <mxCell id="h3d2-yJqiKmQ40LZlvR1-188" value="&lt;span style=&quot;font-size: 14px;&quot;&gt;financial_support&lt;/span&gt;" style="text;html=1;align=center;verticalAlign=middle;resizable=0;points=[];autosize=1;strokeColor=none;fillColor=none;" parent="1" vertex="1">
          <mxGeometry x="64" y="177" width="130" height="30" as="geometry" />
        </mxCell>
        <mxCell id="h3d2-yJqiKmQ40LZlvR1-189" value="&lt;span style=&quot;font-size: 14px;&quot;&gt;type&lt;/span&gt;" style="text;html=1;align=center;verticalAlign=middle;resizable=0;points=[];autosize=1;strokeColor=none;fillColor=none;" parent="1" vertex="1">
          <mxGeometry x="774" y="185" width="50" height="30" as="geometry" />
        </mxCell>
        <mxCell id="h3d2-yJqiKmQ40LZlvR1-190" value="&lt;span style=&quot;font-size: 14px;&quot;&gt;TrackType&lt;/span&gt;" style="text;html=1;align=center;verticalAlign=middle;resizable=0;points=[];autosize=1;strokeColor=none;fillColor=none;" parent="1" vertex="1">
          <mxGeometry x="830" y="335" width="90" height="30" as="geometry" />
        </mxCell>
        <mxCell id="h3d2-yJqiKmQ40LZlvR1-193" value="&lt;b&gt;&lt;font style=&quot;font-size: 14px;&quot;&gt;N&lt;/font&gt;&lt;/b&gt;" style="text;html=1;align=center;verticalAlign=middle;resizable=0;points=[];autosize=1;strokeColor=none;fillColor=none;" parent="1" vertex="1">
          <mxGeometry x="461" y="328" width="30" height="30" as="geometry" />
        </mxCell>
        <mxCell id="h3d2-yJqiKmQ40LZlvR1-197" value="&lt;b&gt;&lt;font style=&quot;font-size: 14px;&quot;&gt;N&lt;/font&gt;&lt;/b&gt;" style="text;html=1;align=center;verticalAlign=middle;resizable=0;points=[];autosize=1;strokeColor=none;fillColor=none;" parent="1" vertex="1">
          <mxGeometry x="17" y="341" width="30" height="30" as="geometry" />
        </mxCell>
        <mxCell id="h3d2-yJqiKmQ40LZlvR1-198" value="&lt;b&gt;&lt;font style=&quot;font-size: 14px;&quot;&gt;1&lt;/font&gt;&lt;/b&gt;" style="text;html=1;align=center;verticalAlign=middle;resizable=0;points=[];autosize=1;strokeColor=none;fillColor=none;" parent="1" vertex="1">
          <mxGeometry x="49" y="430" width="30" height="30" as="geometry" />
        </mxCell>
        <mxCell id="h3d2-yJqiKmQ40LZlvR1-199" value="&lt;b&gt;&lt;font style=&quot;font-size: 14px;&quot;&gt;1&lt;/font&gt;&lt;/b&gt;" style="text;html=1;align=center;verticalAlign=middle;resizable=0;points=[];autosize=1;strokeColor=none;fillColor=none;" parent="1" vertex="1">
          <mxGeometry x="581" y="352" width="30" height="30" as="geometry" />
        </mxCell>
        <mxCell id="h3d2-yJqiKmQ40LZlvR1-201" value="&lt;b&gt;&lt;font style=&quot;font-size: 14px;&quot;&gt;1&lt;/font&gt;&lt;/b&gt;" style="text;html=1;align=center;verticalAlign=middle;resizable=0;points=[];autosize=1;strokeColor=none;fillColor=none;" parent="1" vertex="1">
          <mxGeometry x="293" y="672" width="30" height="30" as="geometry" />
        </mxCell>
        <mxCell id="h3d2-yJqiKmQ40LZlvR1-202" value="&lt;b&gt;&lt;font style=&quot;font-size: 14px;&quot;&gt;N&lt;/font&gt;&lt;/b&gt;" style="text;html=1;align=center;verticalAlign=middle;resizable=0;points=[];autosize=1;strokeColor=none;fillColor=none;" parent="1" vertex="1">
          <mxGeometry x="428" y="659" width="30" height="30" as="geometry" />
        </mxCell>
        <mxCell id="h3d2-yJqiKmQ40LZlvR1-203" value="&lt;b&gt;&lt;font style=&quot;font-size: 14px;&quot;&gt;N&lt;/font&gt;&lt;/b&gt;" style="text;html=1;align=center;verticalAlign=middle;resizable=0;points=[];autosize=1;strokeColor=none;fillColor=none;" parent="1" vertex="1">
          <mxGeometry x="848" y="710" width="30" height="30" as="geometry" />
        </mxCell>
        <mxCell id="h3d2-yJqiKmQ40LZlvR1-204" value="&lt;b&gt;&lt;font style=&quot;font-size: 14px;&quot;&gt;1&lt;/font&gt;&lt;/b&gt;" style="text;html=1;align=center;verticalAlign=middle;resizable=0;points=[];autosize=1;strokeColor=none;fillColor=none;" parent="1" vertex="1">
          <mxGeometry x="844" y="626" width="30" height="30" as="geometry" />
        </mxCell>
        <mxCell id="h3d2-yJqiKmQ40LZlvR1-205" value="&lt;b&gt;&lt;font style=&quot;font-size: 14px;&quot;&gt;N&lt;/font&gt;&lt;/b&gt;" style="text;html=1;align=center;verticalAlign=middle;resizable=0;points=[];autosize=1;strokeColor=none;fillColor=none;" parent="1" vertex="1">
          <mxGeometry x="1105" y="335" width="30" height="30" as="geometry" />
        </mxCell>
        <mxCell id="h3d2-yJqiKmQ40LZlvR1-206" value="&lt;b&gt;&lt;font style=&quot;font-size: 14px;&quot;&gt;M&lt;/font&gt;&lt;/b&gt;" style="text;html=1;align=center;verticalAlign=middle;resizable=0;points=[];autosize=1;strokeColor=none;fillColor=none;" parent="1" vertex="1">
          <mxGeometry x="1100" y="250" width="40" height="30" as="geometry" />
        </mxCell>
        <mxCell id="h3d2-yJqiKmQ40LZlvR1-207" value="&lt;font style=&quot;font-size: 14px;&quot;&gt;&lt;b&gt;N&lt;/b&gt;&lt;/font&gt;" style="text;html=1;align=center;verticalAlign=middle;resizable=0;points=[];autosize=1;strokeColor=none;fillColor=none;" parent="1" vertex="1">
          <mxGeometry x="403" y="37" width="30" height="30" as="geometry" />
        </mxCell>
        <mxCell id="h3d2-yJqiKmQ40LZlvR1-208" value="&lt;font style=&quot;font-size: 14px;&quot;&gt;&lt;b&gt;M&lt;/b&gt;&lt;/font&gt;" style="text;html=1;align=center;verticalAlign=middle;resizable=0;points=[];autosize=1;strokeColor=none;fillColor=none;" parent="1" vertex="1">
          <mxGeometry x="288" y="82" width="40" height="30" as="geometry" />
        </mxCell>
        <mxCell id="a-lybYkGv4idgZWlwZQJ-8" style="edgeStyle=none;rounded=0;orthogonalLoop=1;jettySize=auto;html=1;exitX=0;exitY=0.5;exitDx=0;exitDy=0;entryX=1;entryY=0.5;entryDx=0;entryDy=0;endArrow=none;endFill=0;" parent="1" source="a-lybYkGv4idgZWlwZQJ-6" target="h3d2-yJqiKmQ40LZlvR1-92" edge="1">
          <mxGeometry relative="1" as="geometry" />
        </mxCell>
        <mxCell id="a-lybYkGv4idgZWlwZQJ-6" value="&lt;u&gt;CourseID&lt;/u&gt;" style="ellipse;whiteSpace=wrap;html=1;align=center;" parent="1" vertex="1">
          <mxGeometry x="938" y="576" width="100" height="40" as="geometry" />
        </mxCell>
        <mxCell id="a-lybYkGv4idgZWlwZQJ-9" value="&lt;font style=&quot;font-size: 14px;&quot;&gt;&lt;b&gt;d&lt;/b&gt;&lt;/font&gt;" style="text;html=1;align=center;verticalAlign=middle;resizable=0;points=[];autosize=1;strokeColor=none;fillColor=none;" parent="1" vertex="1">
          <mxGeometry x="185" y="205" width="30" height="30" as="geometry" />
        </mxCell>
        <mxCell id="a-lybYkGv4idgZWlwZQJ-11" value="&lt;font style=&quot;font-size: 14px;&quot;&gt;&lt;b&gt;d&lt;/b&gt;&lt;/font&gt;" style="text;html=1;align=center;verticalAlign=middle;resizable=0;points=[];autosize=1;strokeColor=none;fillColor=none;rotation=0;" parent="1" vertex="1">
          <mxGeometry x="763" y="215" width="30" height="30" as="geometry" />
        </mxCell>
        <mxCell id="a-lybYkGv4idgZWlwZQJ-12" value="&lt;font style=&quot;font-size: 14px;&quot;&gt;&lt;b&gt;d&lt;/b&gt;&lt;/font&gt;" style="text;html=1;align=center;verticalAlign=middle;resizable=0;points=[];autosize=1;strokeColor=none;fillColor=none;" parent="1" vertex="1">
          <mxGeometry x="813" y="365" width="30" height="30" as="geometry" />
        </mxCell>
        <mxCell id="a-lybYkGv4idgZWlwZQJ-13" value="&lt;font style=&quot;font-size: 14px;&quot;&gt;&lt;b&gt;N&lt;/b&gt;&lt;/font&gt;" style="text;html=1;align=center;verticalAlign=middle;resizable=0;points=[];autosize=1;strokeColor=none;fillColor=none;" parent="1" vertex="1">
          <mxGeometry x="431" y="220" width="30" height="30" as="geometry" />
        </mxCell>
        <mxCell id="a-lybYkGv4idgZWlwZQJ-14" value="&lt;b&gt;&lt;font style=&quot;font-size: 14px;&quot;&gt;M&lt;/font&gt;&lt;/b&gt;" style="text;html=1;align=center;verticalAlign=middle;resizable=0;points=[];autosize=1;strokeColor=none;fillColor=none;" parent="1" vertex="1">
          <mxGeometry x="562" y="250" width="40" height="30" as="geometry" />
        </mxCell>
        <mxCell id="a-lybYkGv4idgZWlwZQJ-28" value="CourseName" style="ellipse;whiteSpace=wrap;html=1;align=center;" parent="1" vertex="1">
          <mxGeometry x="939" y="623" width="100" height="40" as="geometry" />
        </mxCell>
        <mxCell id="a-lybYkGv4idgZWlwZQJ-29" style="edgeStyle=none;rounded=0;orthogonalLoop=1;jettySize=auto;html=1;exitX=0;exitY=0.5;exitDx=0;exitDy=0;endArrow=none;endFill=0;" parent="1" source="a-lybYkGv4idgZWlwZQJ-28" edge="1">
          <mxGeometry relative="1" as="geometry">
            <mxPoint x="948" y="606" as="sourcePoint" />
            <mxPoint x="900" y="600" as="targetPoint" />
          </mxGeometry>
        </mxCell>
        <mxCell id="a-lybYkGv4idgZWlwZQJ-31" style="edgeStyle=none;rounded=0;orthogonalLoop=1;jettySize=auto;html=1;exitX=0.5;exitY=1;exitDx=0;exitDy=0;entryX=0;entryY=0.5;entryDx=0;entryDy=0;endArrow=none;endFill=0;" parent="1" source="a-lybYkGv4idgZWlwZQJ-30" target="h3d2-yJqiKmQ40LZlvR1-114" edge="1">
          <mxGeometry relative="1" as="geometry" />
        </mxCell>
        <mxCell id="a-lybYkGv4idgZWlwZQJ-30" value="MonthlyPay" style="ellipse;whiteSpace=wrap;html=1;align=center;" parent="1" vertex="1">
          <mxGeometry x="106" y="480" width="100" height="40" as="geometry" />
        </mxCell>
        <mxCell id="a-lybYkGv4idgZWlwZQJ-33" value="&lt;b&gt;&lt;font style=&quot;font-size: 14px;&quot;&gt;1&lt;/font&gt;&lt;/b&gt;" style="text;html=1;align=center;verticalAlign=middle;resizable=0;points=[];autosize=1;strokeColor=none;fillColor=none;" parent="1" vertex="1">
          <mxGeometry x="329" y="394" width="30" height="30" as="geometry" />
        </mxCell>
        <mxCell id="a-lybYkGv4idgZWlwZQJ-34" value="&lt;b&gt;&lt;font style=&quot;font-size: 14px;&quot;&gt;N&lt;/font&gt;&lt;/b&gt;" style="text;html=1;align=center;verticalAlign=middle;resizable=0;points=[];autosize=1;strokeColor=none;fillColor=none;" parent="1" vertex="1">
          <mxGeometry x="449" y="426" width="30" height="30" as="geometry" />
        </mxCell>
        <mxCell id="a-lybYkGv4idgZWlwZQJ-36" value="&lt;b&gt;&lt;font style=&quot;font-size: 14px;&quot;&gt;1&lt;/font&gt;&lt;/b&gt;" style="text;html=1;align=center;verticalAlign=middle;resizable=0;points=[];autosize=1;strokeColor=none;fillColor=none;" parent="1" vertex="1">
          <mxGeometry x="328" y="526" width="30" height="30" as="geometry" />
        </mxCell>
        <mxCell id="a-lybYkGv4idgZWlwZQJ-37" value="&lt;b&gt;&lt;font style=&quot;font-size: 14px;&quot;&gt;1&lt;/font&gt;&lt;/b&gt;" style="text;html=1;align=center;verticalAlign=middle;resizable=0;points=[];autosize=1;strokeColor=none;fillColor=none;" parent="1" vertex="1">
          <mxGeometry x="206" y="496" width="30" height="30" as="geometry" />
        </mxCell>
        <mxCell id="a-lybYkGv4idgZWlwZQJ-38" value="Investigator" style="ellipse;whiteSpace=wrap;html=1;align=center;" parent="1" vertex="1">
          <mxGeometry x="366" y="616" width="100" height="40" as="geometry" />
        </mxCell>
        <mxCell id="a-lybYkGv4idgZWlwZQJ-41" value="NoOfCoursesTaught" style="ellipse;whiteSpace=wrap;html=1;align=center;" parent="1" vertex="1">
          <mxGeometry x="946" y="434" width="132" height="40" as="geometry" />
        </mxCell>
      </root>
    </mxGraphModel>
  </diagram>
</mxfile>
